<?xml version="1.0" encoding="UTF-8" standalone="no"?>
<!-- Created with Inkscape (http://www.inkscape.org/) -->

<svg
   xmlns:dc="http://purl.org/dc/elements/1.1/"
   xmlns:cc="http://creativecommons.org/ns#"
   xmlns:rdf="http://www.w3.org/1999/02/22-rdf-syntax-ns#"
   xmlns:svg="http://www.w3.org/2000/svg"
   xmlns="http://www.w3.org/2000/svg"
   xmlns:sodipodi="http://sodipodi.sourceforge.net/DTD/sodipodi-0.dtd"
   xmlns:inkscape="http://www.inkscape.org/namespaces/inkscape"
   width="744.09448819"
   height="1052.3622047"
   id="svg2"
   version="1.1"
   inkscape:version="0.48.4 r9939"
   sodipodi:docname="logo.svg">
  <defs
     id="defs4" />
  <sodipodi:namedview
     id="base"
     pagecolor="#ffffff"
     bordercolor="#666666"
     borderopacity="1.0"
     inkscape:pageopacity="0.0"
     inkscape:pageshadow="2"
     inkscape:zoom="0.24748738"
     inkscape:cx="1297.9148"
     inkscape:cy="601.27763"
     inkscape:document-units="px"
     inkscape:current-layer="layer1"
     showgrid="false"
     inkscape:window-width="1366"
     inkscape:window-height="719"
     inkscape:window-x="0"
     inkscape:window-y="25"
     inkscape:window-maximized="1" />
  <metadata
     id="metadata7">
    <rdf:RDF>
      <cc:Work
         rdf:about="">
        <dc:format>image/svg+xml</dc:format>
        <dc:type
           rdf:resource="http://purl.org/dc/dcmitype/StillImage" />
        <dc:title />
      </cc:Work>
    </rdf:RDF>
  </metadata>
  <g
     inkscape:label="Layer 1"
     inkscape:groupmode="layer"
     id="layer1">
    <rect
       style="fill:#0000ff;stroke:none"
       id="rect3156-6-7"
       width="547.83997"
       height="598.78174"
       x="117.76934"
       y="208.35643"
       ry="46.963272" />
    <rect
       style="fill:#ffffff;stroke:none"
       id="rect3156"
       width="529.28571"
       height="578.5022"
       x="127.04644"
       y="218.49619"
       ry="45.372723" />
    <rect
       style="fill:#0000ff;stroke:none"
       id="rect3156-6"
       width="518.77673"
       height="570.22858"
       x="132.80597"
       y="222.4118"
       ry="44.723812" />
    <rect
       style="fill:#ffffff;stroke:none"
       id="rect3156-6-4"
       width="438.33737"
       height="314.37741"
       x="173.02557"
       y="283.62851"
       ry="24.657051" />
    <g
       id="g3214"
       transform="matrix(0.83577263,0,0,0.83577263,61.245209,68.585672)">
      <path
         sodipodi:nodetypes="czscssccccc"
         inkscape:connector-curvature="0"
         id="path3073"
         d="m 199.14978,338.46009 c 0,0 52.4488,0.43693 70.4288,-8.89627 17.98,-9.33321 39.167,-24.28517 62.6446,-27.43018 21.7553,-2.9143 44.8823,8.96967 56.3431,18.16322 21.5417,-18.24255 43.7881,-19.20571 65.9806,-18.90458 28.2901,0.38387 50.8286,20.67539 77.4718,26.68882 17.2232,3.88734 52.6362,5.93085 52.6362,5.93085 l 8.155,249.09567 -197.5715,-8.15492 -196.0886,7.41356 z"
         style="fill:#000000;stroke:none" />
      <path
         sodipodi:nodetypes="ccccc"
         inkscape:connector-curvature="0"
         id="path3087"
         d="m 210.64078,563.83236 0,-211.65718 c 87.0005,3.35028 126.0082,-74.35809 172.3653,-12.97373 -0.047,0.6833 0.3001,199.9311 0.3707,199.05412 -76.1635,-31.88417 -93.8229,18.74936 -172.736,25.57679 z"
         style="fill:#ffffff;stroke:none" />
      <path
         sodipodi:nodetypes="ccccc"
         inkscape:connector-curvature="0"
         id="path3089"
         d="m 398.57458,335.49466 c 49.4117,-50.51669 72.1777,6.18995 173.1066,12.60306 0.9191,0.39095 0,211.2865 0,211.2865 -77.2001,-4.18039 -90.919,-56.98536 -173.1066,-25.94747 0,0 -0.1674,-197.64936 0,-197.94209 z"
         style="fill:#f9f9f9;stroke:none" />
    </g>
    <flowRoot
       xml:space="preserve"
       id="flowRoot3219"
       style="font-size:64px;font-style:normal;font-variant:normal;font-weight:normal;font-stretch:normal;line-height:125%;letter-spacing:0px;word-spacing:0px;fill:#000000;fill-opacity:1;stroke:none;font-family:Ubuntu;-inkscape-font-specification:Ubuntu"
       transform="translate(-1107.4297,119.198)"><flowRegion
         id="flowRegion3221"><rect
           id="rect3223"
           width="448.50772"
           height="210.11172"
           x="1274.8125"
           y="523.04224"
           style="font-size:64px;font-style:normal;font-variant:normal;font-weight:normal;font-stretch:normal;font-family:Ubuntu;-inkscape-font-specification:Ubuntu" /></flowRegion><flowPara
         id="flowPara3225"
         style="font-size:64px;font-style:normal;font-variant:normal;font-weight:normal;font-stretch:normal;text-align:center;line-height:125%;text-anchor:middle;fill:#ffffff;font-family:Ubuntu;-inkscape-font-specification:Ubuntu">STUDY POINT</flowPara></flowRoot>  </g>
</svg>
